<?xml version="1.0" ?><svg id="Layer_1" style="enable-background:new 0 0 300 300;" version="1.1" viewBox="0 0 300 300" xml:space="preserve" xmlns="http://www.w3.org/2000/svg" xmlns:xlink="http://www.w3.org/1999/xlink"><style type="text/css">
	.st0{fill:none;stroke:#2D3642;stroke-width:20;stroke-linecap:round;stroke-linejoin:round;}
	.st1{fill:#168C84;}
</style><title/><g><g id="Layer_1-2"><path class="st0" d="M145,40L145,40c27.6,0,50,22.4,50,50v200"/><path class="st0" d="M55,80l53.8-62.8c3.9-4.6,9.6-7.2,15.6-7.2l0,0c11.3,0,20.6,9.2,20.6,20.5c0,0,0,0,0,0V80H55z"/><line class="st0" x1="245" x2="145" y1="290" y2="290"/><path class="st1" d="M225,190L225,190c0,5.5-4.5,10-10,10h-10l0,0v-20l0,0h10C220.5,180,225,184.5,225,190z"/></g></g></svg>