<?xml version="1.0" ?><svg id="Layer_1" style="enable-background:new 0 0 300 300;" version="1.1" viewBox="0 0 300 300" xml:space="preserve" xmlns="http://www.w3.org/2000/svg" xmlns:xlink="http://www.w3.org/1999/xlink"><style type="text/css">
	.st0{fill:none;stroke:#2D3642;stroke-width:20;stroke-linecap:round;stroke-linejoin:round;}
	.st1{fill:#E0D671;}
	.st2{fill:#168C84;}
</style><title/><g><g id="Layer_1-2"><path class="st0" d="M180,40L180,40c27.6,0,50,22.4,50,50v200"/><polygon class="st1" points="10,300 110,80 170,80 160,300   "/><path class="st0" d="M90,80l53.9-62.8c3.9-4.6,9.6-7.2,15.6-7.2l0,0c11.3,0,20.6,9.2,20.6,20.5c0,0,0,0,0,0V80H90z"/><line class="st0" x1="280" x2="180" y1="290" y2="290"/><path class="st2" d="M260,200L260,200c0,5.5-4.5,10-10,10h-10l0,0v-20l0,0h10C255.5,190,260,194.5,260,200z"/></g></g></svg>